<?xml version="1.0" encoding="UTF-8"?>
<svg width="792px" height="473px" viewBox="0 0 792 473" version="1.1" xmlns="http://www.w3.org/2000/svg" xmlns:xlink="http://www.w3.org/1999/xlink">
    <!-- Generator: Sketch 63 (92445) - https://sketch.com -->
    <title>3-sigma</title>
    <desc>Created with Sketch.</desc>
    <g id="3-sigma" stroke="none" stroke-width="1" fill="none" fill-rule="evenodd" transform="translate(0.000000, 1.000000)">
        <rect fill="#FFFFFF" x="0" y="0" width="792" height="472"></rect>
        <g id="axis/Blank" transform="translate(-610.000000, 37.000000)" fill-rule="nonzero">
            <g id="axis/label-x" transform="translate(1329.000000, 357.000000)" fill="#333333">
                <path d="M1.616,16 L2.656,14.192 C2.928,13.728 3.184,13.248 3.44,12.8 L3.504,12.8 C3.792,13.248 4.08,13.728 4.352,14.192 L5.488,16 L6.928,16 L4.4,12.08 L6.752,8.224 L5.36,8.224 L4.416,9.92 C4.176,10.352 3.952,10.784 3.712,11.216 L3.648,11.216 C3.392,10.784 3.136,10.352 2.896,9.92 L1.856,8.224 L0.416,8.224 L2.768,11.936 L0.224,16 L1.616,16 Z" id="x"></path>
            </g>
            <path id="Path-6" d="M707,4 L714,18 L708,18 L708,368 L1305,368 L1305,362 L1319,369 L1305,376 L1305,370 L706,370 L706,18 L700,18 L707,4 Z" fill="#636F80"></path>
            <g id="axis/label-y" fill="#333333">
                <path d="M687.968,19.344 C689.52,19.344 690.336,18.176 690.88,16.64 L693.808,8.224 L692.512,8.224 L691.12,12.512 C690.912,13.2 690.688,14 690.48,14.704 L690.416,14.704 C690.16,13.984 689.904,13.184 689.648,12.512 L688.08,8.224 L686.704,8.224 L689.824,16.016 L689.648,16.592 C689.328,17.552 688.768,18.24 687.904,18.24 C687.712,18.24 687.52,18.208 687.328,18.144 L687.04,19.184 C687.296,19.28 687.6,19.344 687.968,19.344 Z" id="y"></path>
            </g>
        </g>
        <path d="M695,404 L654.923346,404 C506.606516,404 520.204252,144 395.77576,144 C271.347268,144 284.945003,404 136.628174,404 L99,404" id="Stroke-1" stroke="#74B0DE" stroke-width="4"></path>
        <path d="M313.336,422.496 L313.336,421.472 L309.656,421.472 L309.656,422.496 L313.336,422.496 Z M321,426 L321,424.896 L318.904,424.896 L318.904,415.792 L317.88,415.792 C317.32,416.128 316.648,416.384 315.704,416.544 L315.704,417.408 L317.576,417.408 L317.576,424.896 L315.24,424.896 L315.24,426 L321,426 Z M326.152,426.192 C328.056,426.192 329.544,424.784 329.544,422.368 C329.544,420.912 328.984,419.824 328.024,419.296 L328.024,419.232 C328.888,419.232 329.592,419.28 330.472,419.36 L330.472,418.224 L326.216,418.224 C324.376,418.224 322.664,419.472 322.664,422.192 C322.664,424.768 324.264,426.192 326.152,426.192 Z M326.168,425.088 C324.936,425.088 324.04,423.968 324.04,422.192 C324.04,420.256 324.952,419.328 326.184,419.328 C327.512,419.328 328.248,420.704 328.248,422.256 C328.248,424 327.384,425.088 326.168,425.088 Z" id="-1σ" fill="#333333" fill-rule="nonzero"></path>
        <path d="M471.024,426 L471.024,424.896 L468.928,424.896 L468.928,415.792 L467.904,415.792 C467.344,416.128 466.672,416.384 465.728,416.544 L465.728,417.408 L467.6,417.408 L467.6,424.896 L465.264,424.896 L465.264,426 L471.024,426 Z M476.176,426.192 C478.08,426.192 479.568,424.784 479.568,422.368 C479.568,420.912 479.008,419.824 478.048,419.296 L478.048,419.232 C478.912,419.232 479.616,419.28 480.496,419.36 L480.496,418.224 L476.24,418.224 C474.4,418.224 472.688,419.472 472.688,422.192 C472.688,424.768 474.288,426.192 476.176,426.192 Z M476.192,425.088 C474.96,425.088 474.064,423.968 474.064,422.192 C474.064,420.256 474.976,419.328 476.208,419.328 C477.536,419.328 478.272,420.704 478.272,422.256 C478.272,424 477.408,425.088 476.192,425.088 Z" id="1σ" fill="#333333" fill-rule="nonzero"></path>
        <path d="M387.664,426 L389.168,423.184 C389.44,422.656 389.696,422.128 390,421.488 L390.064,421.488 C390.4,422.128 390.688,422.656 390.96,423.184 L392.496,426 L393.984,426 L390.928,420.64 L393.792,415.504 L392.368,415.504 L390.976,418.176 C390.72,418.656 390.512,419.088 390.24,419.712 L390.176,419.712 C389.84,419.088 389.616,418.656 389.36,418.176 L387.936,415.504 L386.448,415.504 L389.296,420.576 L386.24,426 L387.664,426 Z" id="X" fill="#333333" fill-rule="nonzero"></path>
        <path d="M398.836,430.168 C399.648,430.168 400.418,429.86 401.034,429.3 L400.53,428.558 C400.124,428.922 399.564,429.202 398.934,429.202 C397.688,429.202 396.848,428.166 396.848,426.612 C396.848,425.044 397.744,423.994 398.976,423.994 C399.522,423.994 399.956,424.204 400.334,424.554 L400.908,423.826 C400.432,423.378 399.816,423.028 398.92,423.028 C397.17,423.028 395.644,424.33 395.644,426.612 C395.644,428.866 397.03,430.168 398.836,430.168 Z M403.694,432.87 L403.694,430.574 L403.666,429.384 C404.282,429.874 404.926,430.168 405.542,430.168 C407.096,430.168 408.496,428.81 408.496,426.5 C408.496,424.386 407.544,423.028 405.794,423.028 C405.01,423.028 404.24,423.462 403.624,423.98 L403.582,423.98 L403.484,423.196 L402.532,423.196 L402.532,432.87 L403.694,432.87 Z M405.346,429.188 C404.898,429.188 404.31,429.006 403.694,428.488 L403.694,424.932 C404.352,424.316 404.926,424.008 405.5,424.008 C406.774,424.008 407.292,425.002 407.292,426.5 C407.292,428.18 406.466,429.188 405.346,429.188 Z" id="ср" fill="#333333" fill-rule="nonzero"></path>
        <path d="M374.288,125.192 C375.936,125.192 377.312,123.864 377.312,121.912 C377.312,119.816 376.176,118.76 374.4,118.76 C373.568,118.76 372.656,119.272 372.016,120.072 C372.064,116.824 373.28,115.704 374.704,115.704 C375.344,115.704 375.984,116.024 376.384,116.52 L377.12,115.688 C376.56,115.064 375.76,114.6 374.656,114.6 C372.624,114.6 370.768,116.184 370.768,120.28 C370.768,123.56 372.288,125.192 374.288,125.192 Z M374.288,124.152 C373.008,124.152 372.224,123.096 372.048,121.112 C372.688,120.152 373.52,119.752 374.176,119.752 C375.44,119.752 376.064,120.584 376.064,121.912 C376.064,123.256 375.296,124.152 374.288,124.152 Z M381.952,125.192 C383.936,125.192 385.248,123.992 385.248,122.472 C385.248,121.096 384.384,120.376 383.472,119.848 L383.472,119.784 C384.112,119.304 384.88,118.392 384.88,117.32 C384.88,115.736 383.776,114.6 382,114.6 C380.352,114.6 379.104,115.656 379.104,117.224 C379.104,118.296 379.776,119.048 380.528,119.576 L380.528,119.64 C379.568,120.152 378.608,121.064 378.608,122.392 C378.608,124.008 380.032,125.192 381.952,125.192 Z M382.672,119.432 C381.44,118.952 380.32,118.44 380.32,117.224 C380.32,116.232 381.024,115.592 381.968,115.592 C383.088,115.592 383.744,116.392 383.744,117.384 C383.744,118.136 383.36,118.824 382.672,119.432 Z M381.984,124.2 C380.736,124.2 379.808,123.384 379.808,122.264 C379.808,121.336 380.416,120.584 381.216,120.056 C382.688,120.648 383.984,121.112 383.984,122.424 C383.984,123.48 383.168,124.2 381.984,124.2 Z M386.976,127.72 C388.288,127.192 389.088,126.104 389.088,124.728 C389.088,123.752 388.672,123.16 387.968,123.16 C387.44,123.16 386.992,123.512 386.992,124.088 C386.992,124.696 387.424,125.016 387.936,125.016 C388,125.016 388.048,125.016 388.112,125 C388.112,125.848 387.568,126.552 386.656,126.952 L386.976,127.72 Z M397.136,125 L397.136,123.864 L394.08,123.864 C393.552,123.864 392.928,123.896 392.368,123.944 C394.848,121.416 396.64,119.576 396.64,117.592 C396.64,115.8 395.456,114.6 393.568,114.6 C392.256,114.6 391.344,115.224 390.496,116.184 L391.248,116.904 C391.824,116.232 392.56,115.688 393.408,115.688 C394.704,115.688 395.344,116.504 395.344,117.672 C395.344,119.32 393.584,121.208 390.544,124.184 L390.544,125 L397.136,125 Z M402.144,125.192 C403.792,125.192 405.168,123.864 405.168,121.912 C405.168,119.816 404.032,118.76 402.256,118.76 C401.424,118.76 400.512,119.272 399.872,120.072 C399.92,116.824 401.136,115.704 402.56,115.704 C403.2,115.704 403.84,116.024 404.24,116.52 L404.976,115.688 C404.416,115.064 403.616,114.6 402.512,114.6 C400.48,114.6 398.624,116.184 398.624,120.28 C398.624,123.56 400.144,125.192 402.144,125.192 Z M402.144,124.152 C400.864,124.152 400.08,123.096 399.904,121.112 C400.544,120.152 401.376,119.752 402.032,119.752 C403.296,119.752 403.92,120.584 403.92,121.912 C403.92,123.256 403.152,124.152 402.144,124.152 Z M408.752,120.936 C410.176,120.936 411.136,119.736 411.136,117.608 C411.136,115.512 410.176,114.312 408.752,114.312 C407.312,114.312 406.368,115.512 406.368,117.608 C406.368,119.736 407.312,120.936 408.752,120.936 Z M409.952,125.192 L415.744,114.312 L414.848,114.312 L409.056,125.192 L409.952,125.192 Z M408.752,120.12 C407.936,120.12 407.36,119.272 407.36,117.608 C407.36,115.944 407.936,115.128 408.752,115.128 C409.568,115.128 410.128,115.944 410.128,117.608 C410.128,119.272 409.568,120.12 408.752,120.12 Z M416.064,125.192 C417.488,125.192 418.448,123.992 418.448,121.864 C418.448,119.768 417.488,118.568 416.064,118.568 C414.624,118.568 413.68,119.768 413.68,121.864 C413.68,123.992 414.624,125.192 416.064,125.192 Z M416.064,124.376 C415.248,124.376 414.672,123.528 414.672,121.864 C414.672,120.2 415.248,119.384 416.064,119.384 C416.88,119.384 417.44,120.2 417.44,121.864 C417.44,123.528 416.88,124.376 416.064,124.376 Z" id="68,26%" fill="#333333" fill-rule="nonzero"></path>
        <path d="M375.28,87.192 C377.328,87.192 379.184,85.608 379.184,81.512 C379.184,78.232 377.664,76.6 375.648,76.6 C374.016,76.6 372.64,77.928 372.64,79.88 C372.64,81.976 373.776,83.032 375.536,83.032 C376.368,83.032 377.28,82.552 377.92,81.752 C377.856,84.984 376.672,86.088 375.232,86.088 C374.592,86.088 373.968,85.768 373.552,85.288 L372.816,86.12 C373.376,86.728 374.192,87.192 375.28,87.192 Z M375.76,82.04 C374.512,82.04 373.888,81.208 373.888,79.88 C373.888,78.536 374.656,77.656 375.648,77.656 C376.944,77.656 377.728,78.712 377.888,80.696 C377.248,81.64 376.432,82.04 375.76,82.04 Z M383.696,87.192 C385.472,87.192 387.136,85.944 387.136,83.736 C387.136,81.528 385.712,80.536 383.984,80.536 C383.36,80.536 382.896,80.696 382.416,80.952 L382.688,77.944 L386.64,77.944 L386.64,76.792 L381.52,76.792 L381.184,81.704 L381.888,82.152 C382.496,81.752 382.928,81.544 383.632,81.544 C384.944,81.544 385.792,82.36 385.792,83.768 C385.792,85.192 384.816,86.088 383.568,86.088 C382.368,86.088 381.6,85.528 380.992,84.92 L380.352,85.8 C381.056,86.504 382.064,87.192 383.696,87.192 Z M388.976,89.72 C390.288,89.192 391.088,88.104 391.088,86.728 C391.088,85.752 390.672,85.16 389.968,85.16 C389.44,85.16 388.992,85.512 388.992,86.088 C388.992,86.696 389.424,87.016 389.936,87.016 C390,87.016 390.048,87.016 390.112,87 C390.112,87.848 389.568,88.552 388.656,88.952 L388.976,89.72 Z M398.016,87 L398.016,84.184 L399.408,84.184 L399.408,83.128 L398.016,83.128 L398.016,76.792 L396.544,76.792 L392.176,83.304 L392.176,84.184 L396.768,84.184 L396.768,87 L398.016,87 Z M396.768,83.128 L393.568,83.128 L395.952,79.656 C396.24,79.144 396.528,78.696 396.784,78.216 L396.848,78.216 C396.816,78.76 396.768,79.64 396.768,80.168 L396.768,83.128 Z M405.968,87 L405.968,84.184 L407.36,84.184 L407.36,83.128 L405.968,83.128 L405.968,76.792 L404.496,76.792 L400.128,83.304 L400.128,84.184 L404.72,84.184 L404.72,87 L405.968,87 Z M404.72,83.128 L401.52,83.128 L403.904,79.656 C404.192,79.144 404.48,78.696 404.736,78.216 L404.8,78.216 C404.768,78.76 404.72,79.64 404.72,80.168 L404.72,83.128 Z M410.752,82.936 C412.176,82.936 413.136,81.736 413.136,79.608 C413.136,77.512 412.176,76.312 410.752,76.312 C409.312,76.312 408.368,77.512 408.368,79.608 C408.368,81.736 409.312,82.936 410.752,82.936 Z M411.952,87.192 L417.744,76.312 L416.848,76.312 L411.056,87.192 L411.952,87.192 Z M410.752,82.12 C409.936,82.12 409.36,81.272 409.36,79.608 C409.36,77.944 409.936,77.128 410.752,77.128 C411.568,77.128 412.128,77.944 412.128,79.608 C412.128,81.272 411.568,82.12 410.752,82.12 Z M418.064,87.192 C419.488,87.192 420.448,85.992 420.448,83.864 C420.448,81.768 419.488,80.568 418.064,80.568 C416.624,80.568 415.68,81.768 415.68,83.864 C415.68,85.992 416.624,87.192 418.064,87.192 Z M418.064,86.376 C417.248,86.376 416.672,85.528 416.672,83.864 C416.672,82.2 417.248,81.384 418.064,81.384 C418.88,81.384 419.44,82.2 419.44,83.864 C419.44,85.528 418.88,86.376 418.064,86.376 Z" id="95,44%" fill="#333333" fill-rule="nonzero"></path>
        <path d="M375.28,56.192 C377.328,56.192 379.184,54.608 379.184,50.512 C379.184,47.232 377.664,45.6 375.648,45.6 C374.016,45.6 372.64,46.928 372.64,48.88 C372.64,50.976 373.776,52.032 375.536,52.032 C376.368,52.032 377.28,51.552 377.92,50.752 C377.856,53.984 376.672,55.088 375.232,55.088 C374.592,55.088 373.968,54.768 373.552,54.288 L372.816,55.12 C373.376,55.728 374.192,56.192 375.28,56.192 Z M375.76,51.04 C374.512,51.04 373.888,50.208 373.888,48.88 C373.888,47.536 374.656,46.656 375.648,46.656 C376.944,46.656 377.728,47.712 377.888,49.696 C377.248,50.64 376.432,51.04 375.76,51.04 Z M383.232,56.192 C385.28,56.192 387.136,54.608 387.136,50.512 C387.136,47.232 385.616,45.6 383.6,45.6 C381.968,45.6 380.592,46.928 380.592,48.88 C380.592,50.976 381.728,52.032 383.488,52.032 C384.32,52.032 385.232,51.552 385.872,50.752 C385.808,53.984 384.624,55.088 383.184,55.088 C382.544,55.088 381.92,54.768 381.504,54.288 L380.768,55.12 C381.328,55.728 382.144,56.192 383.232,56.192 Z M383.712,51.04 C382.464,51.04 381.84,50.208 381.84,48.88 C381.84,47.536 382.608,46.656 383.6,46.656 C384.896,46.656 385.68,47.712 385.84,49.696 C385.2,50.64 384.384,51.04 383.712,51.04 Z M388.976,58.72 C390.288,58.192 391.088,57.104 391.088,55.728 C391.088,54.752 390.672,54.16 389.968,54.16 C389.44,54.16 388.992,54.512 388.992,55.088 C388.992,55.696 389.424,56.016 389.936,56.016 C390,56.016 390.048,56.016 390.112,56 C390.112,56.848 389.568,57.552 388.656,57.952 L388.976,58.72 Z M396,56 C396.176,52.016 396.736,49.712 399.184,46.608 L399.184,45.792 L392.608,45.792 L392.608,46.944 L397.696,46.944 C395.632,49.76 394.816,52.16 394.64,56 L396,56 Z M407.088,56 L407.088,54.864 L404.032,54.864 C403.504,54.864 402.88,54.896 402.32,54.944 C404.8,52.416 406.592,50.576 406.592,48.592 C406.592,46.8 405.408,45.6 403.52,45.6 C402.208,45.6 401.296,46.224 400.448,47.184 L401.2,47.904 C401.776,47.232 402.512,46.688 403.36,46.688 C404.656,46.688 405.296,47.504 405.296,48.672 C405.296,50.32 403.536,52.208 400.496,55.184 L400.496,56 L407.088,56 Z M410.752,51.936 C412.176,51.936 413.136,50.736 413.136,48.608 C413.136,46.512 412.176,45.312 410.752,45.312 C409.312,45.312 408.368,46.512 408.368,48.608 C408.368,50.736 409.312,51.936 410.752,51.936 Z M411.952,56.192 L417.744,45.312 L416.848,45.312 L411.056,56.192 L411.952,56.192 Z M410.752,51.12 C409.936,51.12 409.36,50.272 409.36,48.608 C409.36,46.944 409.936,46.128 410.752,46.128 C411.568,46.128 412.128,46.944 412.128,48.608 C412.128,50.272 411.568,51.12 410.752,51.12 Z M418.064,56.192 C419.488,56.192 420.448,54.992 420.448,52.864 C420.448,50.768 419.488,49.568 418.064,49.568 C416.624,49.568 415.68,50.768 415.68,52.864 C415.68,54.992 416.624,56.192 418.064,56.192 Z M418.064,55.376 C417.248,55.376 416.672,54.528 416.672,52.864 C416.672,51.2 417.248,50.384 418.064,50.384 C418.88,50.384 419.44,51.2 419.44,52.864 C419.44,54.528 418.88,55.376 418.064,55.376 Z" id="99,72%" fill="#333333" fill-rule="nonzero"></path>
        <path d="M237.336,422.496 L237.336,421.472 L233.656,421.472 L233.656,422.496 L237.336,422.496 Z M245.208,426 L245.208,424.864 L242.152,424.864 C241.624,424.864 241,424.896 240.44,424.944 C242.92,422.416 244.712,420.576 244.712,418.592 C244.712,416.8 243.528,415.6 241.64,415.6 C240.328,415.6 239.416,416.224 238.568,417.184 L239.32,417.904 C239.896,417.232 240.632,416.688 241.48,416.688 C242.776,416.688 243.416,417.504 243.416,418.672 C243.416,420.32 241.656,422.208 238.616,425.184 L238.616,426 L245.208,426 Z M250.152,426.192 C252.056,426.192 253.544,424.784 253.544,422.368 C253.544,420.912 252.984,419.824 252.024,419.296 L252.024,419.232 C252.888,419.232 253.592,419.28 254.472,419.36 L254.472,418.224 L250.216,418.224 C248.376,418.224 246.664,419.472 246.664,422.192 C246.664,424.768 248.264,426.192 250.152,426.192 Z M250.168,425.088 C248.936,425.088 248.04,423.968 248.04,422.192 C248.04,420.256 248.952,419.328 250.184,419.328 C251.512,419.328 252.248,420.704 252.248,422.256 C252.248,424 251.384,425.088 250.168,425.088 Z" id="-2σ" fill="#333333" fill-rule="nonzero"></path>
        <path d="M547.232,426 L547.232,424.864 L544.176,424.864 C543.648,424.864 543.024,424.896 542.464,424.944 C544.944,422.416 546.736,420.576 546.736,418.592 C546.736,416.8 545.552,415.6 543.664,415.6 C542.352,415.6 541.44,416.224 540.592,417.184 L541.344,417.904 C541.92,417.232 542.656,416.688 543.504,416.688 C544.8,416.688 545.44,417.504 545.44,418.672 C545.44,420.32 543.68,422.208 540.64,425.184 L540.64,426 L547.232,426 Z M552.176,426.192 C554.08,426.192 555.568,424.784 555.568,422.368 C555.568,420.912 555.008,419.824 554.048,419.296 L554.048,419.232 C554.912,419.232 555.616,419.28 556.496,419.36 L556.496,418.224 L552.24,418.224 C550.4,418.224 548.688,419.472 548.688,422.192 C548.688,424.768 550.288,426.192 552.176,426.192 Z M552.192,425.088 C550.96,425.088 550.064,423.968 550.064,422.192 C550.064,420.256 550.976,419.328 552.208,419.328 C553.536,419.328 554.272,420.704 554.272,422.256 C554.272,424 553.408,425.088 552.192,425.088 Z" id="2σ" fill="#333333" fill-rule="nonzero"></path>
        <path d="M161.336,422.496 L161.336,421.472 L157.656,421.472 L157.656,422.496 L161.336,422.496 Z M165.752,426.192 C167.624,426.192 169.128,425.088 169.128,423.28 C169.128,421.872 168.152,420.976 166.92,420.688 L166.92,420.624 C168.024,420.208 168.76,419.424 168.76,418.192 C168.76,416.544 167.48,415.6 165.704,415.6 C164.504,415.6 163.56,416.144 162.776,416.88 L163.48,417.712 C164.088,417.12 164.808,416.688 165.656,416.688 C166.744,416.688 167.416,417.312 167.416,418.288 C167.416,419.36 166.68,420.192 164.52,420.192 L164.52,421.2 C166.952,421.2 167.784,422.016 167.784,423.232 C167.784,424.368 166.904,425.088 165.672,425.088 C164.472,425.088 163.672,424.528 163.064,423.888 L162.392,424.752 C163.08,425.504 164.12,426.192 165.752,426.192 Z M174.152,426.192 C176.056,426.192 177.544,424.784 177.544,422.368 C177.544,420.912 176.984,419.824 176.024,419.296 L176.024,419.232 C176.888,419.232 177.592,419.28 178.472,419.36 L178.472,418.224 L174.216,418.224 C172.376,418.224 170.664,419.472 170.664,422.192 C170.664,424.768 172.264,426.192 174.152,426.192 Z M174.168,425.088 C172.936,425.088 172.04,423.968 172.04,422.192 C172.04,420.256 172.952,419.328 174.184,419.328 C175.512,419.328 176.248,420.704 176.248,422.256 C176.248,424 175.384,425.088 174.168,425.088 Z" id="-3σ" fill="#333333" fill-rule="nonzero"></path>
        <path d="M619.776,426.192 C621.648,426.192 623.152,425.088 623.152,423.28 C623.152,421.872 622.176,420.976 620.944,420.688 L620.944,420.624 C622.048,420.208 622.784,419.424 622.784,418.192 C622.784,416.544 621.504,415.6 619.728,415.6 C618.528,415.6 617.584,416.144 616.8,416.88 L617.504,417.712 C618.112,417.12 618.832,416.688 619.68,416.688 C620.768,416.688 621.44,417.312 621.44,418.288 C621.44,419.36 620.704,420.192 618.544,420.192 L618.544,421.2 C620.976,421.2 621.808,422.016 621.808,423.232 C621.808,424.368 620.928,425.088 619.696,425.088 C618.496,425.088 617.696,424.528 617.088,423.888 L616.416,424.752 C617.104,425.504 618.144,426.192 619.776,426.192 Z M628.176,426.192 C630.08,426.192 631.568,424.784 631.568,422.368 C631.568,420.912 631.008,419.824 630.048,419.296 L630.048,419.232 C630.912,419.232 631.616,419.28 632.496,419.36 L632.496,418.224 L628.24,418.224 C626.4,418.224 624.688,419.472 624.688,422.192 C624.688,424.768 626.288,426.192 628.176,426.192 Z M628.192,425.088 C626.96,425.088 626.064,423.968 626.064,422.192 C626.064,420.256 626.976,419.328 628.208,419.328 C629.536,419.328 630.272,420.704 630.272,422.256 C630.272,424 629.408,425.088 628.192,425.088 Z" id="3σ" fill="#333333" fill-rule="nonzero"></path>
        <g id="Chart/Range-Copy-3" transform="translate(320.000000, 130.000000)" fill="#F7931E" fill-rule="nonzero">
            <path id="Path-8" d="M1,-5 L1,0 L151,0 L151,-5 L153,-5 L153,7 L151,7 L151,1.999 L1,1.999 L1,7 L-1,7 L-1,-5 L1,-5 Z"></path>
        </g>
        <g id="Chart/Range-Copy-4" transform="translate(244.000000, 92.000000)" fill="#F7931E" fill-rule="nonzero">
            <path id="Path-8" d="M1,-5 L1,0 L303,0 L303,-5 L305,-5 L305,7 L303,7 L303,1.999 L1,1.999 L1,7 L-1,7 L-1,-5 L1,-5 Z"></path>
        </g>
        <g id="Chart/Range-Copy-5" transform="translate(168.000000, 61.000000)" fill="#F7931E" fill-rule="nonzero">
            <path id="Path-8" d="M1,-5 L1,0 L455,0 L455,-5 L457,-5 L457,7 L455,7 L455,1.999 L1,1.999 L1,7 L-1,7 L-1,-5 L1,-5 Z"></path>
        </g>
        <line x1="396.5" y1="146" x2="396.5" y2="404" id="Stroke-18" stroke="#9A9FAF" stroke-width="2" stroke-dasharray="6"></line>
        <line x1="320" y1="142" x2="320" y2="405" id="Stroke-20" stroke="#9A9FAF" stroke-width="2" stroke-dasharray="6,4,0,0"></line>
        <line x1="244" y1="102" x2="244" y2="405" id="Stroke-20-Copy-2" stroke="#9A9FAF" stroke-width="2" stroke-dasharray="6,4,0,0"></line>
        <line x1="168" y1="69" x2="168" y2="405" id="Stroke-20-Copy-3" stroke="#9A9FAF" stroke-width="2" stroke-dasharray="6,4,0,0"></line>
        <line x1="548" y1="101" x2="548" y2="405" id="Stroke-20-Copy-4" stroke="#9A9FAF" stroke-width="2" stroke-dasharray="6,4,0,0"></line>
        <line x1="472" y1="141" x2="472" y2="405" id="Stroke-20-Copy" stroke="#9A9FAF" stroke-width="2" stroke-dasharray="6,4,0,0"></line>
        <line x1="624" y1="69" x2="624" y2="405" id="Stroke-20-Copy-5" stroke="#9A9FAF" stroke-width="2" stroke-dasharray="6,4,0,0"></line>
    </g>
</svg>